HIERARCHY
ROOT root
{
	OFFSET 0.000000 0.000000 0.000000
	CHANNELS 6 Xposition Yposition Zposition Zrotation Yrotation Xrotation
	JOINT lhip
	{
		OFFSET 0.058581 -0.082280 -0.017664
		CHANNELS 3 Zrotation Yrotation Xrotation
		JOINT lknee
		{
			OFFSET 0.043451 -0.386469 0.008037
			CHANNELS 3 Zrotation Yrotation Xrotation
			JOINT lankle
			{
				OFFSET -0.014790 -0.426874 -0.037428
				CHANNELS 3 Zrotation Yrotation Xrotation
				JOINT ltoe
				{
					OFFSET 0.041054 -0.060286 0.122042
					CHANNELS 3 Zrotation Yrotation Xrotation
					End Site
					{
						OFFSET 0.000000 0.000000 0.000000
					}
				}
			}
		}
	}
	JOINT rhip
	{
		OFFSET -0.060310 -0.090513 -0.013543
		CHANNELS 3 Zrotation Yrotation Xrotation
		JOINT rknee
		{
			OFFSET -0.043257 -0.383688 -0.004843
			CHANNELS 3 Zrotation Yrotation Xrotation
			JOINT rankle
			{
				OFFSET 0.019056 -0.420046 -0.034562
				CHANNELS 3 Zrotation Yrotation Xrotation
				JOINT rtoe
				{
					OFFSET -0.034840 -0.062106 0.130323
					CHANNELS 3 Zrotation Yrotation Xrotation
					End Site
					{
						OFFSET 0.000000 0.000000 0.000000
					}
				}
			}
		}
	}
	JOINT lowerback
	{
		OFFSET 0.004439 0.124404 -0.038385
		CHANNELS 3 Zrotation Yrotation Xrotation
		JOINT upperback
		{
			OFFSET 0.004488 0.137956 0.026820
			CHANNELS 3 Zrotation Yrotation Xrotation
			JOINT chest
			{
				OFFSET -0.002265 0.056032 0.002855
				CHANNELS 3 Zrotation Yrotation Xrotation
				JOINT lowerneck
				{
					OFFSET -0.013390 0.211636 -0.033468
					CHANNELS 3 Zrotation Yrotation Xrotation
					JOINT upperneck
					{
						OFFSET 0.010113 0.088937 0.050410
						CHANNELS 3 Zrotation Yrotation Xrotation
						End Site
						{
							OFFSET 0.000000 0.000000 0.000000
						}
					}
				}
				JOINT lclavicle
				{
					OFFSET 0.071702 0.114000 -0.018898
					CHANNELS 3 Zrotation Yrotation Xrotation
					JOINT lshoulder
					{
						OFFSET 0.122921 0.045205 -0.019046
						CHANNELS 3 Zrotation Yrotation Xrotation
						JOINT lelbow
						{
							OFFSET 0.255332 -0.015649 -0.022946
							CHANNELS 3 Zrotation Yrotation Xrotation
							JOINT lwrist
							{
								OFFSET 0.265709 0.012698 -0.007375
								CHANNELS 3 Zrotation Yrotation Xrotation
								End Site
								{
									OFFSET 0.000000 0.000000 0.000000
								}
							}
						}
					}
				}
				JOINT rclavicle
				{
					OFFSET -0.082954 0.112472 -0.023707
					CHANNELS 3 Zrotation Yrotation Xrotation
					JOINT rshoulder
					{
						OFFSET -0.113228 0.046853 -0.008472
						CHANNELS 3 Zrotation Yrotation Xrotation
						JOINT relbow
						{
							OFFSET -0.260127 -0.014369 -0.031269
							CHANNELS 3 Zrotation Yrotation Xrotation
							JOINT rwrist
							{
								OFFSET -0.269108 0.006794 -0.006027
								CHANNELS 3 Zrotation Yrotation Xrotation
								End Site
								{
									OFFSET 0.000000 0.000000 0.000000
								}
							}
						}
					}
				}
			}
		}
	}
}
MOTION
Frames: 11
Frame Time: 0.033333
-1.836414 0.350038 0.992065 80.607873 -1.754640 87.610585 4.650758 -0.436751 -9.290827 -7.274176 -5.649213 28.354370 1.207913 8.211082 -15.188366 0.000000 -0.000000 0.000000 0.391163 -3.453156 -3.090628 1.759942 -0.727389 14.522755 1.636730 -9.690622 -13.255645 0.000000 -0.000000 0.000000 -0.106876 2.688619 9.834870 3.099810 -1.626160 -2.510680 -0.460336 -2.394827 1.187334 3.090410 6.225465 -4.798199 -6.863296 -0.588083 7.262044 -24.365186 13.345003 0.054066 -45.884732 -0.091495 6.953438 1.581907 -52.491554 24.161592 0.313122 -8.591300 -8.672119 25.217138 -6.405654 -6.263165 37.358483 17.262208 -8.158579 -47.593209 22.939032 -75.338956 -10.640537 3.325014 -58.172394 
-1.834532 0.349009 0.992282 80.523398 -2.137523 87.481361 4.602033 -0.351443 -10.232040 -7.679142 -5.252933 28.012607 1.640640 7.778966 -14.927649 0.000000 -0.000000 0.000000 -0.042234 -3.659698 -2.560356 1.716188 -0.711148 13.982776 1.910253 -9.329569 -13.082509 0.000000 -0.000000 0.000000 -0.413564 2.978937 9.973477 3.160017 -1.763772 -1.861166 -0.338446 -2.477536 1.329787 2.471981 7.072263 -4.946832 -6.428756 0.158925 6.660357 -24.151558 13.284331 -0.226350 -46.516370 0.623004 8.436541 1.944636 -53.070921 23.852845 3.070539 -3.320450 -11.509820 25.709337 -6.596006 -7.053968 37.306389 17.808677 -8.294904 -47.447648 23.006881 -73.934445 -10.223986 2.097307 -58.864387 
-1.831360 0.349032 0.993534 80.583939 -2.338337 87.601442 4.536772 -0.394006 -11.235921 -7.565488 -4.974586 26.718152 1.184807 7.309503 -14.708034 0.000000 -0.000000 0.000000 -0.415929 -3.825182 -1.869799 1.879941 -0.803684 12.891876 2.134257 -9.225068 -12.712827 0.000000 -0.000000 0.000000 -0.287516 3.118407 10.505556 3.095179 -1.851999 -2.394750 -0.344266 -2.579608 1.368357 2.633019 6.736673 -5.239724 -6.521373 -0.106025 7.089904 -24.311223 13.606425 -0.240794 -46.600254 0.310949 8.190302 1.397103 -53.118203 24.391111 2.474812 -4.765664 -10.087509 25.692445 -6.662629 -7.295306 37.725807 17.507055 -7.886851 -47.909036 22.709198 -74.194581 -9.935817 2.136365 -58.916677 
-1.825901 0.349420 0.994279 80.180864 -2.468100 87.916094 4.526687 0.044969 -11.914508 -6.797384 -4.310706 23.156619 1.078843 7.459187 -13.628414 0.000000 -0.000000 0.000000 -0.674896 -3.728453 -1.354187 1.794361 -0.988921 11.914333 2.161349 -8.703890 -12.485465 0.000000 -0.000000 0.000000 -0.075079 3.045807 10.712225 3.063538 -1.765897 -3.127478 -0.314139 -2.619669 1.114415 2.376514 6.514338 -3.981087 -6.714691 -0.091916 7.494156 -24.281234 13.831152 0.436945 -46.897337 0.946064 8.002171 1.680281 -53.058775 24.278397 1.822717 -4.992831 -10.050522 25.107630 -6.707680 -6.377123 38.284574 17.647593 -7.988434 -48.040329 22.563990 -74.233958 -10.119776 2.351802 -59.274817 
-1.822223 0.349910 0.994592 79.952434 -2.461357 87.918429 4.492462 0.257760 -11.963449 -6.043722 -3.994617 20.439151 0.957858 7.396811 -13.118096 0.000000 -0.000000 0.000000 -0.828545 -3.778142 -0.776484 1.854027 -0.939177 11.233560 2.117186 -8.416543 -12.425245 0.000000 -0.000000 0.000000 0.049681 3.116336 10.189028 3.087716 -1.916081 -2.333834 -0.253541 -2.368092 0.915834 2.163999 6.822289 -3.527875 -6.735680 0.135976 7.605953 -24.168668 13.284808 1.029330 -47.439895 0.661525 7.645591 2.465696 -52.237818 23.128253 2.543798 -6.541097 -8.871767 24.873905 -6.377323 -5.570027 38.245680 17.741396 -8.560562 -48.216386 22.363006 -74.600841 -10.540568 2.765400 -59.382492 
-1.817037 0.351409 0.995237 79.660086 -2.455256 88.354255 4.351913 0.619981 -12.243920 -5.128857 -4.000228 16.622447 0.497351 7.463722 -11.887432 0.000000 -0.000000 0.000000 -0.984996 -3.650388 -0.410683 1.845501 -0.889406 10.193443 2.342559 -8.327565 -12.109305 0.000000 -0.000000 0.000000 0.151107 3.120959 10.453781 2.963828 -1.667475 -2.802792 -0.162543 -2.356445 0.921968 1.969260 7.622759 -3.948924 -6.679871 0.744475 7.912200 -24.236905 13.607763 0.686845 -47.335613 0.901165 8.069296 2.037185 -51.893031 23.831954 2.530314 -6.386033 -9.289798 25.344546 -6.733412 -6.081075 37.762870 17.752347 -8.463195 -48.028257 22.439680 -74.401540 -10.368891 3.039685 -59.814703 
-1.810756 0.353298 0.994916 79.230827 -2.368745 88.797224 4.216262 0.916067 -12.330492 -4.283262 -4.114077 12.663081 0.206331 7.213138 -9.938900 0.000000 -0.000000 0.000000 -1.102176 -3.428769 -0.099228 1.822485 -0.806529 9.361934 2.085975 -8.212773 -11.950173 0.000000 -0.000000 0.000000 0.390149 3.063501 9.283574 2.966020 -1.775812 -1.763322 -0.188193 -2.292700 0.731282 1.633430 7.908228 -3.362364 -6.618782 0.994423 7.230250 -23.854314 13.225894 1.238227 -48.182004 1.578722 7.848450 3.396842 -51.496299 22.862532 0.834875 -4.110989 -9.883605 24.954122 -6.347768 -5.422709 38.096303 18.395859 -9.003824 -48.515477 21.960280 -74.613434 -9.882897 2.786515 -59.156907 
-1.804110 0.356548 0.995981 79.059105 -2.484579 88.959031 3.490321 1.292508 -12.449404 -3.367962 -4.693413 9.743316 -0.245128 6.384919 -7.857459 0.000000 -0.000000 0.000000 -1.541637 -3.496199 0.577446 1.709299 -0.811551 8.519058 2.567508 -8.064314 -11.648519 0.000000 -0.000000 0.000000 0.375475 2.830662 10.030353 2.769862 -1.691300 -2.369867 -0.133133 -2.257156 0.803286 1.670502 8.346068 -4.390566 -6.787203 1.259311 7.262885 -24.108130 13.842689 0.527101 -47.670252 1.501223 8.005841 2.454660 -50.743930 23.882118 1.899968 -5.152732 -10.159976 25.412912 -6.709827 -6.351177 37.894117 18.423896 -8.439870 -48.399163 22.246295 -74.334780 -10.311484 2.742036 -59.573007 
-1.796525 0.361020 0.995284 78.999390 -2.421399 89.511107 2.935312 1.102201 -12.880957 -2.772663 -6.044128 7.470381 -0.945950 5.036526 -6.485098 0.000000 -0.000000 0.000000 -1.897683 -3.425011 0.686429 1.788629 -0.943320 7.999355 2.824550 -8.002700 -11.668311 0.000000 -0.000000 0.000000 0.550527 2.618366 9.990213 2.719355 -1.725735 -2.878548 -0.084511 -2.287401 0.924432 1.760446 7.873887 -4.994630 -7.330614 1.050256 6.975476 -24.266911 14.113710 0.296221 -47.585734 1.527496 8.096681 2.288825 -50.040618 23.867443 2.203884 -5.506202 -9.939237 25.174586 -6.986428 -6.668939 38.121355 18.589232 -8.201815 -48.610039 22.326731 -74.286746 -10.182469 2.722726 -59.960392 
-1.784839 0.366773 0.994410 78.481531 -2.365077 89.677211 2.313859 1.169385 -12.597714 -2.712084 -6.631976 6.334602 -1.281096 4.672198 -5.463107 0.000000 -0.000000 0.000000 -2.419673 -3.276694 1.287494 1.741359 -0.762268 7.737720 3.198632 -7.779262 -11.911531 0.000000 -0.000000 0.000000 0.527831 2.616622 9.876929 2.646771 -1.698217 -2.548995 -0.028600 -2.135896 0.777492 1.642256 8.029023 -5.047936 -7.269302 1.321722 6.457702 -24.204894 14.037135 0.213086 -47.563232 1.650132 8.040543 2.165705 -49.431793 23.876832 2.371961 -5.037516 -9.935734 25.170874 -6.928741 -6.817299 37.832164 18.435043 -8.395989 -48.639695 22.572430 -74.426962 -10.582478 2.533332 -60.000527 
-1.774665 0.372474 0.993212 78.050462 -2.192569 90.096056 1.934450 0.982207 -13.035049 -2.901750 -6.789614 7.703542 -0.693106 4.665599 -4.762063 0.000000 -0.000000 0.000000 -2.698382 -3.376253 1.126788 1.611653 -0.449868 8.228887 3.063070 -7.747035 -12.416566 0.000000 -0.000000 0.000000 0.630994 2.734355 10.115108 2.610526 -1.607236 -4.063415 -0.082566 -2.212495 0.844936 1.492240 8.621262 -4.285523 -7.192385 2.259286 6.803338 -24.003465 14.152427 0.552531 -47.495771 1.907802 7.994027 1.899793 -48.646898 24.505243 2.384684 -5.025520 -10.001391 25.069304 -7.191523 -6.623376 37.801039 18.160696 -8.177253 -48.692559 22.661050 -74.543511 -10.481193 2.303154 -60.390799 
